<svg width="48" height="32" viewBox="0 0 48 32" fill="none" xmlns="http://www.w3.org/2000/svg">
  <path d="M44 0H4C1.79086 0 0 1.79086 0 4V28C0 30.2091 1.79086 32 4 32H44C46.2091 32 48 30.2091 48 28V4C48 1.79086 46.2091 0 44 0Z" fill="black"/>
  <path d="M19.1 11.6C19.8 10.8 20.3 9.7 20.2 8.6C19.2 8.7 18 9.3 17.2 10.2C16.5 11 15.9 12.1 16 13.2C17.1 13.2 18.3 12.5 19.1 11.6Z" fill="white"/>
  <path d="M20.3 13.2C18.7 13.1 17.4 14.1 16.7 14.1C16 14.1 14.8 13.3 13.5 13.3C11.7 13.3 9.8 14.5 8.8 16.4C6.8 20.1 8.3 25.5 10.2 28.5C11.1 30 12.2 31.6 13.7 31.6C15.1 31.6 15.7 30.7 17.4 30.7C19.1 30.7 19.6 31.6 21.1 31.6C22.6 31.6 23.6 30.1 24.5 28.6C25.5 26.9 25.9 25.3 25.9 25.2C25.9 25.1 22.8 24 22.8 20.4C22.8 17.3 25.3 15.9 25.4 15.8C24.1 13.9 22 13.2 20.3 13.2Z" fill="white"/>
  <path d="M33.8 10.2H35.1L37.4 16.1L39.7 10.2H41L37.8 18H37L33.8 10.2Z" fill="white"/>
  <path d="M31.8 17.1C31.4 17.1 31 17 30.7 16.7C30.4 16.4 30.2 16.1 30.2 15.7C30.2 15.3 30.4 15 30.7 14.7C31 14.4 31.4 14.3 31.8 14.3C32.2 14.3 32.6 14.4 32.9 14.7C33.2 15 33.4 15.3 33.4 15.7C33.4 16.1 33.2 16.4 32.9 16.7C32.6 17 32.2 17.1 31.8 17.1Z" fill="white"/>
</svg> 