<svg width="48" height="32" viewBox="0 0 48 32" fill="none" xmlns="http://www.w3.org/2000/svg">
  <path d="M44 0H4C1.79086 0 0 1.79086 0 4V28C0 30.2091 1.79086 32 4 32H44C46.2091 32 48 30.2091 48 28V4C48 1.79086 46.2091 0 44 0Z" fill="white"/>
  <path d="M24.3827 16.8891C24.3827 16.4891 24.3427 16.1091 24.2727 15.7491H19.1927V17.7091H22.1527C22.0327 18.4091 21.5927 18.9891 20.9127 19.3691V20.8491H22.8127C23.9527 19.7891 24.3827 18.4691 24.3827 16.8891Z" fill="#4285F4"/>
  <path d="M19.1927 21.9991C20.7727 21.9991 22.1027 21.4791 22.8127 20.8491L20.9127 19.3691C20.3927 19.7191 19.7027 19.9391 19.1927 19.9391C17.7027 19.9391 16.4527 18.9391 16.0127 17.5991H14.0527V19.1291C14.7927 20.8491 16.8327 21.9991 19.1927 21.9991Z" fill="#34A853"/>
  <path d="M16.0127 17.5991C15.8927 17.2491 15.8127 16.8691 15.8127 16.4991C15.8127 16.1291 15.8827 15.7491 16.0127 15.3991V13.8691H14.0527C13.6127 14.7491 13.3527 15.7491 13.3527 16.4991C13.3527 17.2491 13.6127 18.2491 14.0527 19.1291L16.0127 17.5991Z" fill="#FBBC05"/>
  <path d="M19.1927 12.9991C20.1527 12.9991 21.0127 13.3491 21.6927 13.9891L23.3927 12.2891C22.0927 11.0891 20.7727 10.4991 19.1927 10.4991C16.8327 10.4991 14.7927 11.6491 14.0527 13.3691L16.0127 14.8991C16.4527 13.5591 17.7027 12.9991 19.1927 12.9991Z" fill="#EA4335"/>
  <path d="M29.5 16.5C29.5 15.9477 29.9477 15.5 30.5 15.5H33.5C34.0523 15.5 34.5 15.9477 34.5 16.5C34.5 17.0523 34.0523 17.5 33.5 17.5H30.5C29.9477 17.5 29.5 17.0523 29.5 16.5Z" fill="#5F6368"/>
</svg> 