<svg width="48" height="32" viewBox="0 0 48 32" fill="none" xmlns="http://www.w3.org/2000/svg">
  <path d="M44 0H4C1.79086 0 0 1.79086 0 4V28C0 30.2091 1.79086 32 4 32H44C46.2091 32 48 30.2091 48 28V4C48 1.79086 46.2091 0 44 0Z" fill="white"/>
  <path d="M35.1 13.6C35.1 15.7 33.5 17.3 31.4 17.3H28.5C28.2 17.3 28 17.5 27.9 17.8L26.9 24.1C26.9 24.3 26.7 24.4 26.5 24.4H23.5C23.3 24.4 23.1 24.2 23.2 24L25.2 11.9C25.2 11.7 25.4 11.6 25.6 11.6H31.4C33.5 11.6 35.1 12.4 35.1 13.6Z" fill="#253B80"/>
  <path d="M20.1 13.6C20.1 15.7 18.5 17.3 16.4 17.3H13.5C13.2 17.3 13 17.5 12.9 17.8L11.9 24.1C11.9 24.3 11.7 24.4 11.5 24.4H8.5C8.3 24.4 8.1 24.2 8.2 24L10.2 11.9C10.2 11.7 10.4 11.6 10.6 11.6H16.4C18.5 11.6 20.1 12.4 20.1 13.6Z" fill="#179BD7"/>
  <path fillRule="evenodd" clipRule="evenodd" d="M31.4 11.6H25.6C25.4 11.6 25.2 11.7 25.2 11.9L23.2 24C23.1 24.2 23.3 24.4 23.5 24.4H26.5C26.7 24.4 26.9 24.3 26.9 24.1L27.9 17.8C28 17.5 28.2 17.3 28.5 17.3H31.4C33.5 17.3 35.1 15.7 35.1 13.6C35.1 12.4 33.5 11.6 31.4 11.6ZM16.4 11.6H10.6C10.4 11.6 10.2 11.7 10.2 11.9L8.2 24C8.1 24.2 8.3 24.4 8.5 24.4H11.5C11.7 24.4 11.9 24.3 11.9 24.1L12.9 17.8C13 17.5 13.2 17.3 13.5 17.3H16.4C18.5 17.3 20.1 15.7 20.1 13.6C20.1 12.4 18.5 11.6 16.4 11.6Z" fill="#179BD7"/>
</svg> 