<svg xmlns="http://www.w3.org/2000/svg" width="48" height="32" viewBox="0 0 48 32" fill="none">
  <path d="M44 0H4C1.79086 0 0 1.79086 0 4V28C0 30.2091 1.79086 32 4 32H44C46.2091 32 48 30.2091 48 28V4C48 1.79086 46.2091 0 44 0Z" fill="#5A31F4"/>
  <path d="M24 10C21.7909 10 20 11.7909 20 14V18C20 20.2091 21.7909 22 24 22C26.2091 22 28 20.2091 28 18V14C28 11.7909 26.2091 10 24 10Z" fill="white"/>
  <path d="M21 14C21 12.3431 22.3431 11 24 11C25.6569 11 27 12.3431 27 14V18C27 19.6569 25.6569 21 24 21C22.3431 21 21 19.6569 21 18V14Z" fill="#5A31F4"/>
  <path d="M24 13C23.4477 13 23 13.4477 23 14V18C23 18.5523 23.4477 19 24 19C24.5523 19 25 18.5523 25 18V14C25 13.4477 24.5523 13 24 13Z" fill="white"/>
</svg> 