<svg xmlns="http://www.w3.org/2000/svg" width="48" height="32" viewBox="0 0 48 32" fill="none">
  <path d="M16 8H4C2.89543 8 2 8.89543 2 10V22C2 23.1046 2.89543 24 4 24H16C17.1046 24 18 23.1046 18 22V10C18 8.89543 17.1046 8 16 8Z" fill="#DE2F31"/>
  <path d="M30 8H18C16.8954 8 16 8.89543 16 10V22C16 23.1046 16.8954 24 18 24H30C31.1046 24 32 23.1046 32 22V10C32 8.89543 31.1046 8 30 8Z" fill="#0B4EA2"/>
  <path d="M44 8H32C30.8954 8 30 8.89543 30 10V22C30 23.1046 30.8954 24 32 24H44C45.1046 24 46 23.1046 46 22V10C46 8.89543 45.1046 8 44 8Z" fill="#00447C"/>
  <path d="M8.5 19.2L7 12.8H8.6L9.4 16.9L10.4 12.8H12L13 16.9L13.8 12.8H15.4L13.9 19.2H12.2L11.2 15.1L10.2 19.2H8.5Z" fill="white"/>
  <path d="M22.5 19.2L21 12.8H22.6L23.4 16.9L24.4 12.8H26L27 16.9L27.8 12.8H29.4L27.9 19.2H26.2L25.2 15.1L24.2 19.2H22.5Z" fill="white"/>
  <path d="M36.5 19.2L35 12.8H36.6L37.4 16.9L38.4 12.8H40L41 16.9L41.8 12.8H43.4L41.9 19.2H40.2L39.2 15.1L38.2 19.2H36.5Z" fill="white"/>
</svg> 