<svg xmlns="http://www.w3.org/2000/svg" width="48" height="32" viewBox="0 0 48 32" fill="none">
  <path d="M21.4239 21.0067H17.8823L20.2805 11.8933H23.8221L21.4239 21.0067Z" fill="#1434CB"/>
  <path d="M32.0454 12.2133C31.3375 11.9733 30.2336 11.7067 28.8876 11.7067C25.6681 11.7067 23.3633 13.4133 23.3458 15.8667C23.3107 17.6933 24.9876 18.7067 26.2577 19.3133C27.5628 19.9333 28.0012 20.3467 28.0012 20.9067C27.9836 21.7867 26.8973 22.1733 25.8809 22.1733C24.4766 22.1733 23.7161 21.9733 22.5597 21.52L22.0862 21.3067L21.5601 24.4133C22.3979 24.7333 24.0222 25.0133 25.7166 25.0333C29.1122 25.0333 31.3726 23.3467 31.4077 20.7467C31.4252 19.2667 30.4263 18.1667 28.4461 17.2533C27.2371 16.6667 26.4871 16.2867 26.4871 15.6733C26.5047 15.1267 27.1249 14.5533 28.5468 14.5533C29.7207 14.5333 30.5759 14.8 31.2487 15.0667L31.5611 15.2L32.0454 12.2133Z" fill="#1434CB"/>
  <path d="M36.2661 11.8933H38.9389L42.2635 21.0067H38.9389L36.2661 11.8933ZM40.0077 16.6667L38.9389 13.9733L37.8701 16.6667H40.0077Z" fill="#1434CB"/>
  <path d="M15.9021 11.8933L12.5424 18.4133L12.2301 17.1333C11.6449 15.2933 10.0557 13.2933 8.26514 12.2533L11.3326 21.0067H14.8917L20.2278 11.8933H15.9021Z" fill="#1434CB"/>
  <path d="M10.1785 11.8933H4.81267L4.76001 12.12C9.05602 13.2 11.8764 15.7067 12.1712 17.1333L11.2775 12.4733C11.1371 12.0533 10.6881 11.92 10.1785 11.8933Z" fill="#F79410"/>
</svg> 